<mxfile host="65bd71144e">
    <diagram id="zYQ4JC1dqyDYAC6ojVJY" name="Level 0">
        <mxGraphModel dx="1024" dy="849" grid="1" gridSize="10" guides="1" tooltips="1" connect="1" arrows="1" fold="1" page="1" pageScale="1" pageWidth="827" pageHeight="1169" math="0" shadow="0">
            <root>
                <mxCell id="0"/>
                <mxCell id="1" parent="0"/>
                <mxCell id="2" value="Pipeline Module" style="shape=agent;offsetSize=8;strokeWidth=2;" parent="1" vertex="1">
                    <mxGeometry x="330" y="350" width="290" height="180" as="geometry"/>
                </mxCell>
                <mxCell id="6tz0ARsX1sP2O0EdMjcJ-2" value="Best viewed with the &lt;a href=&quot;https://github.com/ariel-bentu/tam-drawio&quot;&gt;TAM plugin&lt;/a&gt;" style="text;html=1;shape=tamPluginMissing;" parent="1" vertex="1" connectable="0">
                    <mxGeometry x="375" y="560" width="200" height="25" as="geometry"/>
                </mxCell>
                <mxCell id="3" value="" style="shape=actor;horizontalLabelPosition=right;align=left;labelPosition=right;strokeWidth=2;aspect=fixed;" parent="1" vertex="1">
                    <mxGeometry x="457.5" y="180" width="35" height="50" as="geometry"/>
                </mxCell>
                <mxCell id="4" value="" style="shape=useedge;vertical=true;edgeStyle=none;endArrow=none;useSignPosition=left;useSignDirection=south;entryX=0.5;entryY=1;entryDx=0;entryDy=0;exitX=0.5;exitY=0;exitDx=0;exitDy=0;" parent="1" source="2" target="3" edge="1">
                    <mxGeometry height="160" relative="1" as="geometry">
                        <mxPoint x="510" y="520" as="sourcePoint"/>
                        <mxPoint x="510" y="360" as="targetPoint"/>
                    </mxGeometry>
                </mxCell>
                <mxCell id="12" value="CRUD" style="edgeLabel;html=1;align=center;verticalAlign=middle;resizable=0;points=[];" parent="4" vertex="1" connectable="0">
                    <mxGeometry x="0.1167" y="21" relative="1" as="geometry">
                        <mxPoint x="-4" as="offset"/>
                    </mxGeometry>
                </mxCell>
            </root>
        </mxGraphModel>
    </diagram>
    <diagram id="-ONsKa0ARMcQ2WuAO11s" name="Page-4">
        <mxGraphModel dx="1194" dy="849" grid="1" gridSize="10" guides="1" tooltips="1" connect="1" arrows="1" fold="1" page="1" pageScale="1" pageWidth="827" pageHeight="1169" math="0" shadow="0">
            <root>
                <mxCell id="0"/>
                <mxCell id="1" parent="0"/>
                <mxCell id="Vy0OA428iWCqz7bIyity-1" value="Best viewed with the &lt;a href=&quot;https://github.com/ariel-bentu/tam-drawio&quot;&gt;TAM plugin&lt;/a&gt;" style="text;html=1;shape=tamPluginMissing;" vertex="1" connectable="0" parent="1">
                    <mxGeometry x="685" y="860" width="200" height="25" as="geometry"/>
                </mxCell>
                <mxCell id="JEZ1gd4pgeHoRWmLc4yh-2" value="" style="group" vertex="1" connectable="0" parent="1">
                    <mxGeometry x="560" y="290" width="450" height="540" as="geometry"/>
                </mxCell>
                <mxCell id="JEZ1gd4pgeHoRWmLc4yh-3" value="Pipeline Module" style="shape=agent;offsetSize=8;strokeWidth=2;verticalAlign=bottom;" vertex="1" parent="JEZ1gd4pgeHoRWmLc4yh-2">
                    <mxGeometry width="450" height="540" as="geometry"/>
                </mxCell>
                <mxCell id="JEZ1gd4pgeHoRWmLc4yh-4" value="Controller" style="shape=agent;offsetSize=8;strokeWidth=2;" vertex="1" parent="JEZ1gd4pgeHoRWmLc4yh-2">
                    <mxGeometry x="20" y="19.285714285714285" width="400" height="57.85714285714286" as="geometry"/>
                </mxCell>
                <mxCell id="JEZ1gd4pgeHoRWmLc4yh-5" value="Service" style="shape=agent;offsetSize=8;strokeWidth=2;" vertex="1" parent="JEZ1gd4pgeHoRWmLc4yh-2">
                    <mxGeometry x="20" y="125.35714285714286" width="400" height="57.85714285714286" as="geometry"/>
                </mxCell>
                <mxCell id="JEZ1gd4pgeHoRWmLc4yh-6" value="Pipeline DAO" style="shape=agent;offsetSize=8;strokeWidth=2;" vertex="1" parent="JEZ1gd4pgeHoRWmLc4yh-2">
                    <mxGeometry x="25" y="225.64285714285714" width="395" height="57.85714285714286" as="geometry"/>
                </mxCell>
                <mxCell id="JEZ1gd4pgeHoRWmLc4yh-7" value="" style="shape=useedge;vertical=true;edgeStyle=none;endArrow=none;useSignPosition=left;useSignDirection=south;entryX=0.5;entryY=1;entryDx=0;entryDy=0;exitX=0.5;exitY=0;exitDx=0;exitDy=0;" edge="1" parent="JEZ1gd4pgeHoRWmLc4yh-2" source="JEZ1gd4pgeHoRWmLc4yh-6" target="JEZ1gd4pgeHoRWmLc4yh-5">
                    <mxGeometry height="160" relative="1" as="geometry">
                        <mxPoint x="70" y="221.78571428571428" as="sourcePoint"/>
                        <mxPoint x="70" y="67.5" as="targetPoint"/>
                    </mxGeometry>
                </mxCell>
                <mxCell id="JEZ1gd4pgeHoRWmLc4yh-8" value="" style="shape=useedge;vertical=true;edgeStyle=none;endArrow=none;useSignPosition=left;useSignDirection=south;entryX=0.5;entryY=1;entryDx=0;entryDy=0;exitX=0.5;exitY=0;exitDx=0;exitDy=0;" edge="1" parent="JEZ1gd4pgeHoRWmLc4yh-2" source="JEZ1gd4pgeHoRWmLc4yh-5" target="JEZ1gd4pgeHoRWmLc4yh-4">
                    <mxGeometry height="160" relative="1" as="geometry">
                        <mxPoint x="70" y="221.78571428571428" as="sourcePoint"/>
                        <mxPoint x="70" y="67.5" as="targetPoint"/>
                    </mxGeometry>
                </mxCell>
                <mxCell id="JEZ1gd4pgeHoRWmLc4yh-9" value="" style="shape=agent;offsetSize=8;strokeWidth=2;" vertex="1" parent="JEZ1gd4pgeHoRWmLc4yh-2">
                    <mxGeometry x="25" y="337.5" width="395" height="163.92857142857144" as="geometry"/>
                </mxCell>
                <mxCell id="JEZ1gd4pgeHoRWmLc4yh-10" value="Repository" style="shape=agent;offsetSize=8;strokeWidth=2;" vertex="1" parent="JEZ1gd4pgeHoRWmLc4yh-2">
                    <mxGeometry x="40" y="355.0982142857143" width="360" height="32.978571428571435" as="geometry"/>
                </mxCell>
                <mxCell id="JEZ1gd4pgeHoRWmLc4yh-11" value="" style="group" vertex="1" connectable="0" parent="JEZ1gd4pgeHoRWmLc4yh-2">
                    <mxGeometry x="40" y="414.64285714285717" width="360" height="67.5" as="geometry"/>
                </mxCell>
                <mxCell id="JEZ1gd4pgeHoRWmLc4yh-12" value="" style="rounded=1;whiteSpace=wrap;html=1;arcSize=60;strokeWidth=2;verticalAlign=bottom;" vertex="1" parent="JEZ1gd4pgeHoRWmLc4yh-11">
                    <mxGeometry width="359.99999999999994" height="67.5" as="geometry"/>
                </mxCell>
                <mxCell id="JEZ1gd4pgeHoRWmLc4yh-13" value="Pipelin1" style="rounded=1;whiteSpace=wrap;html=1;arcSize=60;strokeWidth=2;" vertex="1" parent="JEZ1gd4pgeHoRWmLc4yh-11">
                    <mxGeometry x="19.45945945945946" y="15" width="116.75675675675674" height="37.50000000000001" as="geometry"/>
                </mxCell>
                <mxCell id="JEZ1gd4pgeHoRWmLc4yh-14" value="Pipelin2" style="rounded=1;whiteSpace=wrap;html=1;arcSize=60;strokeWidth=2;" vertex="1" parent="JEZ1gd4pgeHoRWmLc4yh-11">
                    <mxGeometry x="145.94594594594594" y="15" width="116.75675675675674" height="37.50000000000001" as="geometry"/>
                </mxCell>
                <mxCell id="JEZ1gd4pgeHoRWmLc4yh-15" value="" style="shape=dot3;connectable=0;aspect=fixed;" vertex="1" parent="JEZ1gd4pgeHoRWmLc4yh-11">
                    <mxGeometry x="272.4324324324324" y="28.125" width="33.48314190446651" height="9.13176597394541" as="geometry"/>
                </mxCell>
                <mxCell id="JEZ1gd4pgeHoRWmLc4yh-16" value="" style="shape=updateedge;endArrow=none;vertical=true;entryX=0.5;entryY=0;entryDx=0;entryDy=0;exitX=0.5;exitY=1;exitDx=0;exitDy=0;" edge="1" parent="JEZ1gd4pgeHoRWmLc4yh-2" source="JEZ1gd4pgeHoRWmLc4yh-10" target="JEZ1gd4pgeHoRWmLc4yh-12">
                    <mxGeometry width="30" height="80" relative="1" as="geometry">
                        <mxPoint x="259.2307692307693" y="330.36428571428576" as="sourcePoint"/>
                        <mxPoint x="259.2307692307693" y="396.32142857142856" as="targetPoint"/>
                    </mxGeometry>
                </mxCell>
                <mxCell id="JEZ1gd4pgeHoRWmLc4yh-17" value="" style="shape=useedge;vertical=true;edgeStyle=none;endArrow=none;useSignPosition=left;useSignDirection=south;exitX=0.5;exitY=0;exitDx=0;exitDy=0;entryX=0.5;entryY=1;entryDx=0;entryDy=0;" edge="1" parent="JEZ1gd4pgeHoRWmLc4yh-2" source="JEZ1gd4pgeHoRWmLc4yh-10" target="JEZ1gd4pgeHoRWmLc4yh-6">
                    <mxGeometry height="160" relative="1" as="geometry">
                        <mxPoint x="70" y="221.78571428571428" as="sourcePoint"/>
                        <mxPoint x="70" y="67.5" as="targetPoint"/>
                    </mxGeometry>
                </mxCell>
                <mxCell id="JEZ1gd4pgeHoRWmLc4yh-18" value="" style="shape=actor;horizontalLabelPosition=right;align=left;labelPosition=right;strokeWidth=2;aspect=fixed;" vertex="1" parent="1">
                    <mxGeometry x="762.5" y="140" width="35" height="50" as="geometry"/>
                </mxCell>
                <mxCell id="JEZ1gd4pgeHoRWmLc4yh-19" value="" style="shape=useedge;vertical=true;edgeStyle=none;endArrow=none;useSignPosition=left;useSignDirection=south;entryX=0.5;entryY=1;entryDx=0;entryDy=0;exitX=0.5;exitY=0;exitDx=0;exitDy=0;" edge="1" parent="1" source="JEZ1gd4pgeHoRWmLc4yh-4" target="JEZ1gd4pgeHoRWmLc4yh-18">
                    <mxGeometry height="160" relative="1" as="geometry">
                        <mxPoint x="840" y="530" as="sourcePoint"/>
                        <mxPoint x="840" y="370" as="targetPoint"/>
                    </mxGeometry>
                </mxCell>
                <mxCell id="JEZ1gd4pgeHoRWmLc4yh-20" value="CRUD Pipeline" style="edgeLabel;html=1;align=center;verticalAlign=middle;resizable=0;points=[];" vertex="1" connectable="0" parent="JEZ1gd4pgeHoRWmLc4yh-19">
                    <mxGeometry x="0.0952" y="21" relative="1" as="geometry">
                        <mxPoint x="-29" as="offset"/>
                    </mxGeometry>
                </mxCell>
            </root>
        </mxGraphModel>
    </diagram>
</mxfile>